<?xml version="1.0" encoding="UTF-8"?>
<svg xmlns="http://www.w3.org/2000/svg" id="Layer_1" data-name="Layer 1" viewBox="0 0 24 24" width="512" height="512"><path d="m22.772,11.125c-.647-.256-1.387-.102-1.945.314l-.982.789c-.33-1.384-1.18-2.566-2.336-3.326.919-.946,1.491-2.232,1.491-3.652,0-2.895-2.355-5.25-5.25-5.25-1.47,0-2.796.611-3.75,1.587-.954-.976-2.28-1.587-3.75-1.587C3.355,0,1,2.355,1,5.25c0,1.42.572,2.706,1.491,3.652-1.498.984-2.491,2.676-2.491,4.598v5c0,3.033,2.467,5.5,5.5,5.5h9c2.565,0,4.72-1.768,5.325-4.148l1.088.763c.342.255.746.385,1.153.385.394,0,.791-.122,1.137-.369.525-.374.797-1.015.797-1.66v-6.047c0-.794-.476-1.502-1.228-1.8ZM13.75,3c1.241,0,2.25,1.009,2.25,2.25s-1.009,2.25-2.25,2.25-2.25-1.009-2.25-2.25,1.009-2.25,2.25-2.25Zm-7.5,0c1.241,0,2.25,1.009,2.25,2.25s-1.009,2.25-2.25,2.25-2.25-1.009-2.25-2.25,1.009-2.25,2.25-2.25Zm10.75,15.5c0,1.378-1.122,2.5-2.5,2.5H5.5c-1.378,0-2.5-1.122-2.5-2.5v-5c0-1.378,1.122-2.5,2.5-2.5h9c1.378,0,2.5,1.122,2.5,2.5v5Z"/></svg>
